<?xml version="1.0" encoding="utf-8"?>
<!-- Generator: Adobe Illustrator 14.0.0, SVG Export Plug-In . SVG Version: 6.00 Build 43363)  -->
<!DOCTYPE svg PUBLIC "-//W3C//DTD SVG 1.1//EN" "http://www.w3.org/Graphics/SVG/1.1/DTD/svg11.dtd">
<svg version="1.1" id="Layer_1" xmlns="http://www.w3.org/2000/svg" xmlns:xlink="http://www.w3.org/1999/xlink" x="0px" y="0px"
	 width="475.333px" height="167.333px" viewBox="0 0 475.333 167.333" enable-background="new 0 0 475.333 167.333"
	 xml:space="preserve">
<g>
	<path fill="#327400" d="M103.474,7.223c1.458,1.46,2.188,3.238,2.188,5.338c0,2.1-0.73,3.851-2.188,5.25
		c-1.46,1.4-3.238,2.101-5.338,2.101h-35.53v100.289c0,2.218-0.788,4.086-2.363,5.601c-1.575,1.515-3.473,2.275-5.688,2.275
		c-2.218,0-4.086-0.76-5.601-2.275c-1.518-1.515-2.275-3.383-2.275-5.601V19.913H10.973c-2.1,0-3.851-0.7-5.25-2.101
		c-1.4-1.4-2.101-3.15-2.101-5.25c0-2.101,0.7-3.878,2.101-5.338c1.4-1.458,3.15-2.188,5.25-2.188h87.163
		C100.235,5.035,102.013,5.766,103.474,7.223z"/>
</g>
<g>
	<path fill="#60DF00" d="M147.841,4.16c2.215,0,4.113,0.788,5.688,2.363s2.363,3.473,2.363,5.688v74.735
		c0,15.288-3.793,26.489-11.376,33.605c-6.068,5.601-14.294,8.401-24.679,8.401c-8.519,0-16.277-1.983-23.278-5.951
		c-2.568-1.4-3.851-3.295-3.851-5.688c0-2.391,0.613-4.316,1.838-5.776c1.225-1.458,2.625-2.188,4.201-2.188s3.178,0.41,4.813,1.225
		c4.433,2.218,8.721,3.326,12.865,3.326c4.14,0,7.496-0.32,10.063-0.963c2.565-0.64,4.841-1.895,6.826-3.763
		c4.433-4.201,6.651-11.259,6.651-21.178V12.211c0-2.215,0.758-4.113,2.275-5.688C143.755,4.948,145.623,4.16,147.841,4.16z"/>
</g>
<g>
	<path fill="#60DF00" d="M208.572,113.901c20.418,0,30.63-6.708,30.63-20.128c0-5.601-3.911-10.091-11.727-13.477
		c-3.386-1.4-7.324-2.653-11.814-3.763c-4.493-1.107-9.044-2.302-13.652-3.588c-4.61-1.283-9.161-2.74-13.651-4.375
		c-4.493-1.633-8.489-3.733-11.989-6.301c-7.701-5.833-11.552-13.535-11.552-23.104c0-10.266,3.851-18.667,11.552-25.204
		c8.401-7.116,19.66-10.676,33.779-10.676c12.717,0,24.329,1.925,34.83,5.776c3.266,1.167,4.901,3.5,4.901,7.001
		c0,1.75-0.613,3.413-1.838,4.988c-1.226,1.575-2.568,2.363-4.025,2.363c-1.461,0-3.474-0.465-6.039-1.4
		c-7.586-2.683-16.277-4.025-26.078-4.025c-8.986,0-16.395,1.693-22.229,5.076c-5.951,3.5-8.926,8.461-8.926,14.877
		c0,6.651,3.851,11.669,11.552,15.052c3.5,1.635,7.466,2.975,11.902,4.025c4.433,1.05,8.983,2.161,13.651,3.326
		c4.666,1.167,9.217,2.538,13.652,4.113c4.433,1.575,8.401,3.648,11.901,6.213c7.701,5.601,11.552,13.652,11.552,24.154
		c0,10.037-4.025,18.202-12.076,24.503c-8.287,6.418-19.195,9.626-32.73,9.626c-14.819,0-28.704-2.801-41.655-8.401
		c-1.286-0.583-2.423-1.515-3.413-2.8c-0.993-1.283-1.488-2.828-1.488-4.638c0-1.808,0.64-3.44,1.925-4.901
		c1.283-1.458,2.771-2.188,4.463-2.188c1.69,0,3.791,0.555,6.301,1.663c2.508,1.11,6.621,2.423,12.339,3.938
		C194.335,113.143,200.986,113.901,208.572,113.901z"/>
</g>
<g>
	<g>
		<path fill="#6B6C6F" d="M88.97,123.402l-7.461-12.924c-1.459-2.528-3.849-2.528-5.309,0l-7.461,12.924
			c-1.46,2.529-0.266,4.598,2.654,4.598h14.923C89.235,128,90.43,125.931,88.97,123.402z"/>
	</g>
</g>
<g>
	<path fill="#327400" d="M62.988,140.406c0.268,0.269,0.402,0.595,0.402,0.981s-0.134,0.708-0.402,0.965
		c-0.269,0.257-0.596,0.386-0.981,0.386h-6.533v18.439c0,0.408-0.145,0.751-0.435,1.03c-0.29,0.278-0.638,0.418-1.045,0.418
		c-0.408,0-0.751-0.14-1.03-0.418c-0.279-0.279-0.418-0.622-0.418-1.03v-18.439h-6.564c-0.386,0-0.708-0.129-0.966-0.386
		c-0.257-0.257-0.386-0.579-0.386-0.965s0.128-0.713,0.386-0.981c0.258-0.268,0.58-0.402,0.966-0.402h16.025
		C62.393,140.004,62.72,140.138,62.988,140.406z"/>
	<path fill="#327400" d="M84.146,161.178c0,0.408-0.14,0.751-0.418,1.03c-0.279,0.278-0.633,0.418-1.062,0.418
		c-0.43,0-0.778-0.134-1.046-0.402c-0.269-0.268-0.402-0.617-0.402-1.046v-0.965c0-1.738-0.193-3.014-0.579-3.83
		c-0.386-0.815-0.912-1.464-1.577-1.947s-1.609-0.724-2.832-0.724h-6.661v7.466c0,0.408-0.145,0.751-0.435,1.03
		c-0.29,0.278-0.639,0.418-1.046,0.418c-0.408,0-0.751-0.14-1.03-0.418c-0.279-0.279-0.418-0.622-0.418-1.03v-19.694
		c0-0.407,0.139-0.756,0.418-1.046s0.622-0.435,1.03-0.435h7.498c2.939,0,5.159,0.623,6.661,1.867
		c1.394,1.18,2.092,2.735,2.092,4.666c0,1.244-0.349,2.403-1.046,3.475c-0.697,1.073-1.754,1.856-3.17,2.349
		c1.545,0.408,2.66,1.523,3.347,3.347c0.451,1.223,0.676,2.553,0.676,3.99V161.178z M75.393,150.945c1.802,0,3.255-0.354,4.36-1.062
		s1.657-1.749,1.657-3.122c0-1.287-0.429-2.252-1.287-2.896c-1.03-0.729-2.66-1.094-4.891-1.094h-5.664v8.173H75.393z"/>
	<path fill="#327400" d="M90.678,139.843c0.407,0,0.756,0.145,1.046,0.434c0.29,0.29,0.435,0.639,0.435,1.046v19.855
		c0,0.408-0.145,0.751-0.435,1.03c-0.29,0.278-0.639,0.418-1.046,0.418c-0.408,0-0.751-0.14-1.03-0.418
		c-0.279-0.279-0.418-0.622-0.418-1.03v-19.855c0-0.407,0.139-0.756,0.418-1.046C89.927,139.988,90.27,139.843,90.678,139.843z"/>
	<path fill="#327400" d="M116.421,160.535c0.107,0.257,0.161,0.531,0.161,0.82s-0.128,0.574-0.386,0.853
		c-0.257,0.278-0.665,0.418-1.223,0.418c-0.558,0-0.965-0.3-1.223-0.901l-2.092-5.02h-10.941l-2.092,5.02
		c-0.257,0.601-0.665,0.901-1.223,0.901c-0.558,0-0.965-0.14-1.223-0.418c-0.257-0.279-0.386-0.563-0.386-0.853
		s0.054-0.563,0.161-0.82l8.206-19.372c0.386-0.879,1.008-1.319,1.867-1.319h0.322c0.858,0,1.48,0.44,1.866,1.319L116.421,160.535z
		 M110.532,154.034l-4.344-10.458l-4.344,10.458H110.532z"/>
	<path fill="#327400" d="M138.303,139.843c0.408,0,0.756,0.145,1.046,0.434c0.29,0.29,0.435,0.639,0.435,1.046v19.211
		c0,0.579-0.209,1.073-0.627,1.48c-0.418,0.408-0.917,0.612-1.497,0.612h-0.386c-0.708,0-1.277-0.29-1.706-0.869l-12.454-17.988
		v17.409c0,0.408-0.145,0.751-0.435,1.03c-0.29,0.278-0.639,0.418-1.046,0.418c-0.408,0-0.751-0.14-1.03-0.418
		c-0.279-0.279-0.418-0.622-0.418-1.03v-19.211c0-0.579,0.204-1.078,0.611-1.496c0.407-0.418,0.901-0.627,1.48-0.627h0.418
		c0.665,0,1.255,0.322,1.77,0.965l12.389,17.892v-17.377c0-0.407,0.139-0.756,0.418-1.046
		C137.552,139.988,137.895,139.843,138.303,139.843z"/>
	<path fill="#327400" d="M156.034,160.02c2.016,0,3.894-0.472,5.631-1.416v-5.825h-5.31c-0.365,0-0.676-0.129-0.933-0.386
		c-0.258-0.257-0.386-0.568-0.386-0.933c0-0.365,0.128-0.676,0.386-0.933c0.257-0.257,0.568-0.386,0.933-0.386h6.339
		c0.429,0,0.793,0.15,1.094,0.451c0.3,0.3,0.45,0.665,0.45,1.094v7.305c0,0.451-0.112,0.853-0.338,1.207
		c-0.225,0.354-0.521,0.617-0.885,0.788c-2.403,1.202-4.859,1.802-7.369,1.802c-3.368,0-6.093-1.072-8.174-3.218
		c-2.081-2.167-3.121-4.934-3.121-8.302c0-3.411,1.083-6.222,3.25-8.431c2.081-2.103,4.73-3.154,7.948-3.154
		c1.823,0,3.363,0.226,4.618,0.676c1.255,0.451,2.387,0.998,3.395,1.641c0.429,0.236,0.644,0.574,0.644,1.014
		c0,0.44-0.118,0.794-0.354,1.062c-0.236,0.269-0.52,0.402-0.853,0.402c-0.333,0-0.606-0.053-0.821-0.161
		c-2.081-1.201-4.183-1.802-6.307-1.802c-2.489,0-4.527,0.751-6.114,2.252c-1.652,1.588-2.478,3.754-2.478,6.5
		c0,2.531,0.772,4.612,2.317,6.243C151.186,159.183,153.331,160.02,156.034,160.02z"/>
	<path fill="#327400" d="M183.82,159.971c0.29,0.29,0.435,0.639,0.435,1.046c0,0.408-0.145,0.751-0.435,1.03
		c-0.29,0.279-0.639,0.418-1.046,0.418h-11.423c-0.558,0-1.036-0.198-1.432-0.595c-0.397-0.397-0.595-0.874-0.595-1.432v-19.115
		c0-0.407,0.139-0.756,0.418-1.046c0.279-0.29,0.622-0.434,1.03-0.434c0.407,0,0.756,0.145,1.046,0.434
		c0.29,0.29,0.435,0.639,0.435,1.046v18.214h10.522C183.182,159.537,183.531,159.682,183.82,159.971z"/>
	<path fill="#327400" d="M202.871,160.132c0.268,0.269,0.402,0.595,0.402,0.981s-0.135,0.708-0.402,0.965
		c-0.269,0.257-0.596,0.386-0.981,0.386h-12.904c-0.408,0-0.751-0.139-1.03-0.418c-0.279-0.278-0.418-0.622-0.418-1.03v-19.533
		c0-0.407,0.139-0.756,0.418-1.046s0.622-0.435,1.03-0.435h12.904c0.386,0,0.713,0.134,0.981,0.402
		c0.268,0.269,0.402,0.595,0.402,0.981s-0.135,0.708-0.402,0.965c-0.269,0.257-0.596,0.386-0.981,0.386h-11.424v7.112h10.266
		c0.386,0,0.713,0.134,0.981,0.402c0.268,0.268,0.402,0.595,0.402,0.981c0,0.386-0.135,0.708-0.402,0.965
		c-0.269,0.257-0.596,0.386-0.981,0.386h-10.266v7.144h11.424C202.275,159.73,202.602,159.864,202.871,160.132z"/>
	<path fill="#60DF00" d="M215.146,139.843c0.407,0,0.757,0.145,1.046,0.434c0.29,0.29,0.435,0.639,0.435,1.046v13.741
		c0,2.811-0.697,4.87-2.092,6.179c-1.115,1.03-2.628,1.544-4.537,1.544c-1.566,0-2.993-0.365-4.28-1.094
		c-0.472-0.257-0.708-0.606-0.708-1.046c0-0.439,0.113-0.793,0.338-1.062c0.226-0.268,0.483-0.402,0.772-0.402
		c0.29,0,0.585,0.075,0.885,0.225c0.815,0.408,1.604,0.611,2.365,0.611s1.379-0.059,1.851-0.177c0.472-0.118,0.89-0.349,1.255-0.692
		c0.815-0.772,1.223-2.07,1.223-3.894v-13.934c0-0.407,0.14-0.756,0.419-1.046C214.395,139.988,214.739,139.843,215.146,139.843z"/>
	<path fill="#60DF00" d="M240.761,160.535c0.107,0.257,0.161,0.531,0.161,0.82s-0.129,0.574-0.387,0.853
		c-0.257,0.278-0.665,0.418-1.223,0.418s-0.966-0.3-1.223-0.901l-2.092-5.02h-10.941l-2.091,5.02
		c-0.258,0.601-0.666,0.901-1.224,0.901s-0.965-0.14-1.223-0.418c-0.257-0.279-0.386-0.563-0.386-0.853s0.053-0.563,0.161-0.82
		l8.205-19.372c0.387-0.879,1.009-1.319,1.866-1.319h0.322c0.857,0,1.48,0.44,1.866,1.319L240.761,160.535z M234.873,154.034
		l-4.345-10.458l-4.344,10.458H234.873z"/>
	<path fill="#60DF00" d="M251.155,159.698l7.562-18.857c0.278-0.665,0.691-0.998,1.239-0.998c0.547,0,0.949,0.14,1.206,0.418
		c0.258,0.279,0.387,0.58,0.387,0.901s-0.032,0.558-0.097,0.708l-7.948,19.275c-0.451,0.987-1.116,1.48-1.995,1.48h-0.708
		c-0.88,0-1.545-0.494-1.995-1.48l-7.948-19.275c-0.064-0.15-0.097-0.386-0.097-0.708s0.129-0.622,0.386-0.901
		c0.258-0.278,0.579-0.418,0.966-0.418c0.708,0,1.201,0.333,1.48,0.998L251.155,159.698z"/>
	<path fill="#60DF00" d="M282.047,160.535c0.107,0.257,0.161,0.531,0.161,0.82s-0.129,0.574-0.387,0.853
		c-0.257,0.278-0.665,0.418-1.223,0.418s-0.966-0.3-1.223-0.901l-2.092-5.02h-10.941l-2.091,5.02
		c-0.258,0.601-0.666,0.901-1.224,0.901s-0.965-0.14-1.223-0.418c-0.257-0.279-0.386-0.563-0.386-0.853s0.053-0.563,0.161-0.82
		l8.205-19.372c0.387-0.879,1.009-1.319,1.866-1.319h0.322c0.857,0,1.48,0.44,1.866,1.319L282.047,160.535z M276.159,154.034
		l-4.345-10.458l-4.344,10.458H276.159z"/>
	<path fill="#60DF00" d="M292.601,160.02c3.754,0,5.632-1.233,5.632-3.701c0-1.03-0.72-1.855-2.156-2.478
		c-0.622-0.257-1.347-0.488-2.172-0.692c-0.826-0.204-1.663-0.423-2.511-0.66c-0.848-0.236-1.684-0.504-2.51-0.805
		c-0.826-0.3-1.561-0.686-2.204-1.158c-1.416-1.073-2.124-2.488-2.124-4.248c0-1.887,0.708-3.432,2.124-4.634
		c1.545-1.308,3.614-1.963,6.211-1.963c2.338,0,4.473,0.354,6.403,1.062c0.601,0.215,0.901,0.644,0.901,1.287
		c0,0.322-0.113,0.627-0.338,0.917c-0.226,0.29-0.473,0.435-0.74,0.435c-0.269,0-0.639-0.085-1.11-0.257
		c-1.395-0.493-2.992-0.74-4.795-0.74c-1.652,0-3.014,0.312-4.087,0.933c-1.094,0.644-1.641,1.556-1.641,2.735
		c0,1.223,0.708,2.146,2.124,2.768c0.644,0.301,1.372,0.547,2.188,0.74c0.815,0.193,1.652,0.397,2.511,0.611
		c0.857,0.214,1.694,0.466,2.51,0.756c0.814,0.29,1.545,0.67,2.188,1.142c1.415,1.03,2.123,2.51,2.123,4.441
		c0,1.845-0.739,3.347-2.22,4.505c-1.523,1.18-3.529,1.77-6.018,1.77c-2.725,0-5.277-0.515-7.659-1.544
		c-0.236-0.107-0.445-0.279-0.627-0.515c-0.183-0.236-0.273-0.52-0.273-0.853s0.117-0.633,0.354-0.901
		c0.235-0.268,0.51-0.402,0.82-0.402s0.697,0.102,1.159,0.306c0.461,0.204,1.217,0.445,2.269,0.724
		C289.984,159.88,291.207,160.02,292.601,160.02z"/>
	<path fill="#60DF00" d="M321.434,158.475c0.172-0.085,0.413-0.129,0.725-0.129c0.311,0,0.579,0.124,0.804,0.37
		c0.226,0.247,0.338,0.531,0.338,0.853c0,0.579-0.236,0.987-0.708,1.223c-1.008,0.558-2.086,1.03-3.233,1.416
		c-1.148,0.386-2.521,0.579-4.119,0.579c-1.599,0-3.084-0.263-4.457-0.789s-2.563-1.292-3.572-2.301
		c-2.145-2.102-3.218-4.923-3.218-8.463c0-3.54,1.073-6.361,3.218-8.463c2.081-2.06,4.763-3.089,8.045-3.089
		c1.588,0,2.955,0.193,4.104,0.579c1.147,0.386,2.027,0.746,2.639,1.078c0.611,0.333,0.981,0.601,1.11,0.805
		c0.129,0.204,0.192,0.461,0.192,0.772s-0.112,0.59-0.338,0.836c-0.225,0.247-0.493,0.37-0.804,0.37
		c-0.312,0-0.553-0.043-0.725-0.129c-0.858-0.45-1.737-0.815-2.639-1.094s-2.022-0.418-3.362-0.418
		c-1.341,0-2.554,0.225-3.637,0.676c-1.083,0.45-1.99,1.073-2.719,1.866c-1.438,1.566-2.156,3.636-2.156,6.211
		c0,2.574,0.719,4.645,2.156,6.21c1.565,1.695,3.722,2.542,6.468,2.542c1.266,0,2.349-0.139,3.25-0.418
		S320.576,158.926,321.434,158.475z"/>
	<path fill="#60DF00" d="M344.958,161.178c0,0.408-0.14,0.751-0.418,1.03c-0.279,0.278-0.633,0.418-1.062,0.418
		c-0.429,0-0.777-0.134-1.046-0.402s-0.401-0.617-0.401-1.046v-0.965c0-1.738-0.193-3.014-0.58-3.83
		c-0.386-0.815-0.912-1.464-1.576-1.947c-0.665-0.483-1.609-0.724-2.832-0.724h-6.661v7.466c0,0.408-0.145,0.751-0.435,1.03
		c-0.289,0.278-0.639,0.418-1.046,0.418s-0.751-0.14-1.029-0.418c-0.279-0.279-0.419-0.622-0.419-1.03v-19.694
		c0-0.407,0.14-0.756,0.419-1.046c0.278-0.29,0.622-0.435,1.029-0.435h7.498c2.938,0,5.159,0.623,6.661,1.867
		c1.395,1.18,2.092,2.735,2.092,4.666c0,1.244-0.349,2.403-1.046,3.475c-0.697,1.073-1.754,1.856-3.17,2.349
		c1.545,0.408,2.66,1.523,3.347,3.347c0.45,1.223,0.676,2.553,0.676,3.99V161.178z M336.205,150.945c1.803,0,3.256-0.354,4.36-1.062
		s1.657-1.749,1.657-3.122c0-1.287-0.429-2.252-1.287-2.896c-1.029-0.729-2.66-1.094-4.892-1.094h-5.663v8.173H336.205z"/>
	<path fill="#60DF00" d="M351.49,139.843c0.407,0,0.757,0.145,1.046,0.434c0.29,0.29,0.435,0.639,0.435,1.046v19.855
		c0,0.408-0.145,0.751-0.435,1.03c-0.289,0.278-0.639,0.418-1.046,0.418s-0.751-0.14-1.029-0.418
		c-0.279-0.279-0.419-0.622-0.419-1.03v-19.855c0-0.407,0.14-0.756,0.419-1.046C350.739,139.988,351.083,139.843,351.49,139.843z"/>
	<path fill="#60DF00" d="M367.675,140.004c2.981,0,5.224,0.772,6.726,2.317c1.244,1.245,1.866,2.854,1.866,4.827
		c0,1.974-0.622,3.583-1.866,4.827c-1.502,1.545-3.744,2.317-6.726,2.317h-5.856v6.887c0,0.408-0.145,0.751-0.435,1.03
		c-0.289,0.278-0.639,0.418-1.046,0.418s-0.751-0.14-1.029-0.418c-0.279-0.279-0.419-0.622-0.419-1.03v-19.694
		c0-0.407,0.14-0.756,0.419-1.046c0.278-0.29,0.622-0.435,1.029-0.435H367.675z M367.386,151.524c2.209,0,3.808-0.472,4.794-1.416
		c0.772-0.729,1.159-1.716,1.159-2.96c0-1.995-0.998-3.325-2.993-3.99c-0.772-0.257-1.759-0.386-2.96-0.386h-5.567v8.753H367.386z"
		/>
	<path fill="#60DF00" d="M395.784,140.406c0.269,0.269,0.402,0.595,0.402,0.981s-0.134,0.708-0.402,0.965s-0.595,0.386-0.981,0.386
		h-6.532v18.439c0,0.408-0.145,0.751-0.435,1.03c-0.289,0.278-0.639,0.418-1.046,0.418s-0.751-0.14-1.029-0.418
		c-0.279-0.279-0.419-0.622-0.419-1.03v-18.439h-6.564c-0.386,0-0.708-0.129-0.965-0.386c-0.258-0.257-0.387-0.579-0.387-0.965
		s0.129-0.713,0.387-0.981c0.257-0.268,0.579-0.402,0.965-0.402h16.025C395.189,140.004,395.515,140.138,395.784,140.406z"/>
	<path fill="#6B6C6F" d="M399.871,159.295c0.354,0.354,0.531,0.778,0.531,1.271v0.193c0,0.494-0.177,0.917-0.531,1.271
		c-0.354,0.354-0.777,0.531-1.271,0.531h-0.321c-0.494,0-0.917-0.177-1.271-0.531c-0.354-0.354-0.53-0.777-0.53-1.271v-0.193
		c0-0.493,0.177-0.917,0.53-1.271c0.354-0.354,0.777-0.531,1.271-0.531h0.321C399.093,158.765,399.517,158.942,399.871,159.295z"/>
	<path fill="#6B6C6F" d="M414.753,139.682c3.39,0,6.114,1.083,8.174,3.25c1.995,2.124,3.035,4.892,3.122,8.303
		c-0.087,3.411-1.127,6.178-3.122,8.302c-2.06,2.167-4.784,3.25-8.174,3.25c-3.41,0-6.136-1.083-8.173-3.25
		c-2.039-2.145-3.079-4.913-3.122-8.302c0.043-3.39,1.083-6.157,3.122-8.303C408.618,140.766,411.343,139.682,414.753,139.682z
		 M414.753,160.052c2.617,0,4.677-0.847,6.179-2.542c1.459-1.63,2.188-3.722,2.188-6.275c0-2.553-0.729-4.645-2.188-6.275
		c-1.502-1.694-3.562-2.542-6.179-2.542s-4.677,0.848-6.178,2.542c-1.459,1.631-2.188,3.723-2.188,6.275
		c0,2.553,0.729,4.645,2.188,6.275C410.077,159.205,412.136,160.052,414.753,160.052z"/>
	<path fill="#6B6C6F" d="M448.091,161.178c0,0.408-0.14,0.751-0.418,1.03c-0.279,0.278-0.633,0.418-1.062,0.418
		c-0.429,0-0.777-0.134-1.046-0.402s-0.401-0.617-0.401-1.046v-0.965c0-1.738-0.193-3.014-0.58-3.83
		c-0.386-0.815-0.912-1.464-1.576-1.947c-0.665-0.483-1.609-0.724-2.832-0.724h-6.661v7.466c0,0.408-0.145,0.751-0.435,1.03
		c-0.289,0.278-0.639,0.418-1.046,0.418s-0.751-0.14-1.029-0.418c-0.279-0.279-0.419-0.622-0.419-1.03v-19.694
		c0-0.407,0.14-0.756,0.419-1.046c0.278-0.29,0.622-0.435,1.029-0.435h7.498c2.938,0,5.159,0.623,6.661,1.867
		c1.395,1.18,2.092,2.735,2.092,4.666c0,1.244-0.349,2.403-1.046,3.475c-0.697,1.073-1.754,1.856-3.17,2.349
		c1.545,0.408,2.66,1.523,3.347,3.347c0.45,1.223,0.676,2.553,0.676,3.99V161.178z M439.338,150.945c1.803,0,3.256-0.354,4.36-1.062
		s1.657-1.749,1.657-3.122c0-1.287-0.429-2.252-1.287-2.896c-1.029-0.729-2.66-1.094-4.892-1.094h-5.663v8.173H439.338z"/>
	<path fill="#6B6C6F" d="M463.505,160.02c2.017,0,3.894-0.472,5.631-1.416v-5.825h-5.31c-0.364,0-0.676-0.129-0.933-0.386
		c-0.258-0.257-0.387-0.568-0.387-0.933c0-0.365,0.129-0.676,0.387-0.933c0.257-0.257,0.568-0.386,0.933-0.386h6.34
		c0.429,0,0.793,0.15,1.094,0.451s0.451,0.665,0.451,1.094v7.305c0,0.451-0.113,0.853-0.338,1.207
		c-0.226,0.354-0.521,0.617-0.886,0.788c-2.402,1.202-4.858,1.802-7.369,1.802c-3.368,0-6.093-1.072-8.173-3.218
		c-2.081-2.167-3.122-4.934-3.122-8.302c0-3.411,1.083-6.222,3.25-8.431c2.081-2.103,4.73-3.154,7.949-3.154
		c1.823,0,3.362,0.226,4.617,0.676c1.255,0.451,2.387,0.998,3.396,1.641c0.429,0.236,0.644,0.574,0.644,1.014
		c0,0.44-0.118,0.794-0.354,1.062c-0.236,0.269-0.521,0.402-0.853,0.402c-0.333,0-0.606-0.053-0.82-0.161
		c-2.081-1.201-4.184-1.802-6.308-1.802c-2.489,0-4.526,0.751-6.114,2.252c-1.652,1.588-2.478,3.754-2.478,6.5
		c0,2.531,0.772,4.612,2.317,6.243C458.657,159.183,460.802,160.02,463.505,160.02z"/>
</g>
</svg>
